<svg xmlns="http://www.w3.org/2000/svg" viewBox="0 0 105.25 110.73"><defs><style>.cls-1{fill:#f9b233;}</style></defs><g id="Capa_2" data-name="Capa 2"><g id="background"><path class="cls-1" d="M103.72,40.36l-9.11-8.42V9.34A3.64,3.64,0,0,0,91,5.71H78.76a4,4,0,0,0-4,4v4L65.47,5A18.94,18.94,0,0,0,39.79,5L1.54,40.36a4.77,4.77,0,0,0,3.24,8.28h5c-.13,1.36-.2,2.74-.2,4.13V67.63a43.22,43.22,0,0,0,43.1,43.1h0a43.22,43.22,0,0,0,43.09-43.1V52.77c0-1.39-.07-2.77-.2-4.13h5a4.78,4.78,0,0,0,3.24-8.28ZM55,41.71c2.4-4.56,7.61-6.54,11.65-4.42s5.36,7.54,3,12.1S62,55.94,58,53.82,52.62,46.28,55,41.71ZM38.58,37.29c4-2.12,9.26-.14,11.65,4.42s1.07,10-3,12.11S38,54,35.62,49.39,34.55,39.41,38.58,37.29ZM23.43,60c-2-3.89-.91-8.52,2.54-10.33s7.9-.12,9.94,3.78.92,8.52-2.53,10.33S25.48,63.91,23.43,60Zm29.2,35C47.09,94.88,32,94.83,32,81.5c0-15.34,12.23-24,20.64-24s20.64,8.63,20.64,24C73.27,94.83,58.16,94.88,52.63,95ZM81.82,60c-2,3.9-6.5,5.59-9.95,3.78s-4.58-6.44-2.53-10.33,6.5-5.59,10-3.78S83.87,56.12,81.82,60Z"/></g></g></svg>